<?xml version="1.0" encoding="utf-8"?>
<!-- Generator: Adobe Illustrator 19.0.0, SVG Export Plug-In . SVG Version: 6.00 Build 0)  -->
<svg version="1.1" id="Layer_1" xmlns="http://www.w3.org/2000/svg" xmlns:xlink="http://www.w3.org/1999/xlink" x="0px" y="0px"
	 viewBox="-9 61 700 520" style="enable-background:new -9 61 700 520;" xml:space="preserve">
<style type="text/css">
	.st0{fill:none;stroke:#000000;stroke-width:5;stroke-miterlimit:10;}
	.st1{font-family:'MyriadPro-Regular';}
	.st2{font-size:12px;}
	.st3{fill:#00AEEF;}
	.st4{fill:#EF4136;}
	.st5{fill:none;stroke:#00AEEF;stroke-width:5;stroke-miterlimit:10;}
	.st6{fill:none;stroke:#EF4136;stroke-width:5;stroke-miterlimit:10;}
</style>
<g id="XMLID_15_">
	<path id="XMLID_14_" class="st0" d="M11.3,88.2v200c66.7,0,133.3,0,200,0"/>
	<text id="XMLID_18_" transform="matrix(1 0 0 1 98.9075 303.8616)" class="st1 st2">Time</text>
	<text id="XMLID_20_" transform="matrix(1 0 0 1 22.3707 101.1949)" class="st3 st1 st2">XPI</text>
	<text id="XMLID_21_" transform="matrix(1 0 0 1 20.9728 116.5281)" class="st4 st1 st2">MPI</text>
	<line id="XMLID_22_" class="st5" x1="22.4" y1="197.2" x2="193.1" y2="268.5"/>
	<line id="XMLID_23_" class="st6" x1="22.4" y1="184.5" x2="193.1" y2="116.5"/>
</g>
<g id="XMLID_16_">
	<path id="XMLID_27_" class="st0" d="M240.4,89.4v200c66.7,0,133.3,0,200,0"/>
	<text id="XMLID_26_" transform="matrix(1 0 0 1 328.0502 305.0112)" class="st1 st2">Time</text>
	<text id="XMLID_25_" transform="matrix(1 0 0 1 251.5135 102.3445)" class="st3 st1 st2">XPI</text>
	<text id="XMLID_24_" transform="matrix(1 0 0 1 250.1155 117.6777)" class="st4 st1 st2">MPI</text>
	<line id="XMLID_17_" class="st6" x1="251.6" y1="185.7" x2="422.2" y2="117.7"/>
	<line id="XMLID_19_" class="st5" x1="251.6" y1="197.2" x2="422.2" y2="197.2"/>
</g>
<g id="XMLID_28_">
	<path id="XMLID_34_" class="st0" d="M124.1,343.2v200c66.7,0,133.3,0,200,0"/>
	<text id="XMLID_33_" transform="matrix(1 0 0 1 211.6574 558.8047)" class="st1 st2">Time</text>
	<text id="XMLID_32_" transform="matrix(1 0 0 1 135.1206 356.138)" class="st3 st1 st2">XPI</text>
	<text id="XMLID_31_" transform="matrix(1 0 0 1 133.7227 371.4712)" class="st4 st1 st2">MPI</text>
	<line id="XMLID_29_" class="st6" x1="135.2" y1="512.3" x2="309.2" y2="386.5"/>
	<line id="XMLID_30_" class="st5" x1="135.2" y1="527.1" x2="309.2" y2="463.1"/>
</g>
<g id="XMLID_35_">
	<path id="XMLID_41_" class="st0" d="M356.8,344.3v200c66.7,0,133.3,0,200,0"/>
	<text id="XMLID_40_" transform="matrix(1 0 0 1 444.4427 559.9541)" class="st1 st2">Time</text>
	<text id="XMLID_39_" transform="matrix(1 0 0 1 367.906 357.2874)" class="st3 st1 st2">XPI</text>
	<text id="XMLID_38_" transform="matrix(1 0 0 1 366.5081 372.6206)" class="st4 st1 st2">MPI</text>
	<line id="XMLID_37_" class="st5" x1="374.8" y1="402.3" x2="546.6" y2="533.1"/>
	<line id="XMLID_36_" class="st6" x1="376" y1="385.6" x2="546.6" y2="437.1"/>
</g>
<g id="XMLID_68_">
	<path id="XMLID_74_" class="st0" d="M470.7,89.4v200c66.7,0,133.3,0,200,0"/>
	<text id="XMLID_73_" transform="matrix(1 0 0 1 558.3002 305.0111)" class="st1 st2">Time</text>
	<text id="XMLID_72_" transform="matrix(1 0 0 1 481.7635 102.3444)" class="st3 st1 st2">XPI</text>
	<text id="XMLID_71_" transform="matrix(1 0 0 1 480.3655 117.6776)" class="st4 st1 st2">MPI</text>
	<line id="XMLID_70_" class="st6" x1="481.8" y1="185.7" x2="652.5" y2="184.5"/>
	<line id="XMLID_101_" class="st5" x1="481.8" y1="197.2" x2="652.5" y2="274.2"/>
</g>
</svg>
